<?xml version="1.0" standalone="no"?>
<!DOCTYPE svg PUBLIC "-//W3C//DTD SVG 20010904//EN"
 "http://www.w3.org/TR/2001/REC-SVG-20010904/DTD/svg10.dtd">
<svg version="1.0" xmlns="http://www.w3.org/2000/svg"
 width="260.000000pt" height="260.000000pt" viewBox="0 0 260.000000 260.000000"
 preserveAspectRatio="xMidYMid meet">
<metadata>
Created by potrace 1.11, written by Peter Selinger 2001-2013
</metadata>
<g transform="translate(0.000000,260.000000) scale(0.100000,-0.100000)"
fill="#000000" stroke="none">
<path d="M2300 2442 c-152 -154 -155 -157 -175 -139 -73 65 -88 77 -100 77 -6
0 -22 9 -35 20 -13 11 -29 20 -37 20 -7 0 -13 4 -13 9 0 10 -172 79 -261 105
-104 30 -215 39 -438 33 -175 -4 -232 -9 -297 -26 -80 -20 -274 -96 -284 -110
-3 -4 -20 -13 -37 -20 -18 -8 -33 -17 -33 -22 0 -4 -10 -11 -22 -15 -12 -3
-28 -12 -35 -18 -6 -6 -26 -22 -43 -36 -39 -31 -167 -159 -198 -197 -12 -15
-31 -39 -42 -52 -11 -13 -20 -28 -20 -33 0 -5 -6 -16 -13 -23 -32 -36 -39 -48
-59 -100 -11 -30 -24 -55 -28 -55 -4 0 -13 -19 -20 -42 -7 -24 -23 -72 -36
-108 -41 -114 -57 -262 -50 -460 5 -157 14 -224 44 -342 15 -56 84 -228 93
-228 4 0 13 -16 19 -35 6 -19 15 -35 20 -35 5 0 12 -10 16 -22 3 -12 12 -27
18 -34 6 -6 18 -22 26 -34 8 -13 25 -33 38 -46 13 -13 18 -24 13 -24 -6 0 -76
-65 -156 -145 l-145 -145 0 -70 0 -70 70 0 70 0 66 64 c36 35 70 68 75 72 5 5
35 37 67 70 80 85 95 91 128 59 13 -14 29 -25 35 -25 5 0 15 -5 22 -10 48 -41
62 -50 74 -50 7 0 13 -4 13 -9 0 -5 20 -17 45 -27 25 -9 45 -20 45 -24 0 -7
57 -29 165 -63 217 -68 598 -70 815 -5 66 20 175 61 180 69 3 4 24 15 48 24
23 10 42 20 42 24 0 4 16 13 35 20 19 7 35 16 35 21 0 5 10 12 22 15 11 4 31
16 42 26 49 44 132 120 140 128 50 51 76 82 76 89 0 5 8 18 18 30 40 49 52 67
52 79 0 7 4 13 9 13 5 0 13 9 16 20 3 11 12 26 19 32 20 21 102 239 114 303
27 149 34 254 28 395 -6 128 -15 192 -45 320 -9 40 -109 288 -123 304 -40 50
-48 60 -48 68 0 9 -11 24 -47 63 -13 13 -23 26 -23 29 0 3 70 75 155 161 l155
155 0 70 0 70 -72 -1 -73 0 -155 -157z m-865 -32 c39 -6 93 -17 120 -26 82
-26 258 -96 272 -108 31 -27 41 -34 61 -40 11 -4 35 -20 53 -37 17 -16 35 -29
39 -29 4 0 10 -7 14 -15 4 -11 -138 -158 -462 -481 -257 -255 -471 -469 -476
-473 -4 -5 -42 -43 -83 -84 -80 -79 -85 -85 -169 -168 -30 -30 -68 -69 -86
-86 -18 -18 -52 -52 -75 -75 -24 -24 -62 -62 -85 -85 -24 -23 -54 -55 -68 -72
-14 -17 -28 -31 -32 -31 -8 0 -28 20 -48 50 -8 12 -23 31 -33 42 -9 12 -17 27
-17 35 0 7 -4 13 -9 13 -5 0 -15 16 -22 35 -7 19 -16 35 -20 35 -11 0 -80 178
-100 260 -20 77 -43 265 -35 278 2 4 9 43 15 87 11 76 74 284 90 295 4 3 18
31 30 63 13 31 27 57 31 57 5 0 12 10 16 22 3 12 10 26 15 32 5 6 18 22 29 36
54 68 70 86 127 143 34 34 74 72 90 85 15 12 39 31 52 42 13 11 30 20 38 20 7
0 13 4 13 9 0 5 9 13 20 16 11 3 26 12 32 19 17 16 236 106 259 106 10 0 28 5
41 10 59 26 245 36 363 20z m735 -431 c8 -11 23 -30 33 -41 9 -12 17 -25 17
-30 0 -8 8 -20 37 -52 21 -24 112 -255 134 -340 48 -191 32 -400 -47 -595 -25
-63 -51 -120 -59 -127 -7 -8 -17 -24 -21 -36 -4 -12 -12 -27 -18 -34 -6 -6
-18 -22 -26 -34 -8 -12 -21 -28 -27 -36 -7 -7 -13 -17 -13 -23 0 -6 -40 -50
-89 -99 -115 -112 -150 -142 -167 -142 -8 0 -14 -4 -14 -9 0 -5 -13 -14 -30
-21 -16 -7 -30 -15 -30 -19 0 -4 -22 -15 -50 -26 -27 -11 -50 -22 -50 -26 0
-6 -116 -52 -160 -63 -113 -28 -225 -46 -290 -46 -125 0 -423 72 -450 108 -3
4 -25 16 -50 27 -25 11 -49 23 -55 28 -5 4 -21 16 -34 27 -13 11 -28 20 -33
20 -5 0 -15 6 -22 13 -8 6 -23 19 -35 27 -11 8 -21 18 -21 22 0 9 37 50 98
111 28 28 73 73 161 161 26 25 149 148 159 158 4 4 257 257 562 562 305 305
560 555 565 555 6 1 17 -8 25 -20z"/>
</g>
</svg>
